<?xml version="1.0" encoding="utf-8"?>
<!-- Generator: Adobe Illustrator 24.1.2, SVG Export Plug-In . SVG Version: 6.00 Build 0)  -->
<svg version="1.1" id="Calque_1" xmlns="http://www.w3.org/2000/svg" xmlns:xlink="http://www.w3.org/1999/xlink" x="0px" y="0px"
	 viewBox="0 0 512 512" style="enable-background:new 0 0 512 512;" xml:space="preserve">
<style type="text/css">
	.st0{fill:#54AF32;}
	.st1{fill:none;stroke:#000000;stroke-miterlimit:10;}
</style>
<g id="XMLID_1_">
	<g>
		<path class="st0" d="M512,256v192c0,17.7-14.3,32-32,32h-32c-17.7,0-32-14.3-32-32v-48H96v48c0,17.7-14.3,32-32,32H32
			c-17.7,0-32-14.3-32-32V256c0-26.7,16.4-49.6,39.6-59.2L74.8,96.3C88.3,57.8,124.6,32,165.4,32h181.2c40.8,0,77.1,25.8,90.6,64.3
			l35.2,100.5C495.6,206.4,512,229.3,512,256z M448,288c0-17.7-14.3-32-32-32s-32,14.3-32,32c0,17.7,14.3,32,32,32
			S448,305.7,448,288z M402.9,192l-26.1-74.6c-4.5-12.8-16.6-21.4-30.2-21.4H165.4c-13.6,0-25.7,8.6-30.2,21.4L109.1,192H402.9z
			 M128,288c0-17.7-14.3-32-32-32c-17.7,0-32,14.3-32,32c0,17.7,14.3,32,32,32C113.7,320,128,305.7,128,288z"/>
	</g>
	<g>
		<path class="st1" d="M39.6,196.8L74.8,96.3C88.3,57.8,124.6,32,165.4,32h181.2c40.8,0,77.1,25.8,90.6,64.3l35.2,100.5
			c23.2,9.6,39.6,32.5,39.6,59.2v192c0,17.7-14.3,32-32,32h-32c-17.7,0-32-14.3-32-32v-48H96v48c0,17.7-14.3,32-32,32H32
			c-17.7,0-32-14.3-32-32V256C0,229.3,16.4,206.4,39.6,196.8z"/>
		<path class="st1" d="M109.1,192h293.8l-26.1-74.6c-4.5-12.8-16.6-21.4-30.2-21.4H165.4c-13.6,0-25.7,8.6-30.2,21.4L109.1,192z"/>
		<circle class="st1" cx="96" cy="288" r="32"/>
		<circle class="st1" cx="416" cy="288" r="32"/>
	</g>
</g>
</svg>
